<?xml version="1.0" encoding="utf-8"?>
<svg width="571" height="483" viewBox="0 0 571 483" xmlns="http://www.w3.org/2000/svg">
<rect id="frame" x="0" y="0" width="571" height="483" fill="#f7f7f7" stroke="none" stroke-width="0"/>

<!-- Entity ETAPES -->
<g>
	<g>
		<rect x="126" y="26" width="94" height="25" fill="#c2a5cf" stroke="#c2a5cf" stroke-width="0" opacity="1"/>
		<rect x="126" y="51" width="94" height="77" fill="#e7d4e8" stroke="#e7d4e8" stroke-width="0" opacity="1"/>
		<rect x="126" y="26" width="94" height="102" fill="none" stroke="#9970ab" stroke-width="2" opacity="1"/>
		<line x1="126" y1="51" x2="220" y2="51" stroke="#9970ab" stroke-width="1"/>
	</g>
	<text x="150" y="43.75" fill="#000" font-family="Verdana" font-size="12">ETAPES</text>
	<text x="131" y="68.8" fill="#000" font-family="Verdana" font-size="12">NumEtape</text>
	<line x1="131" y1="71" x2="194" y2="71" stroke="#000" stroke-width="1"/>
	<text x="131" y="85.8" fill="#000" font-family="Verdana" font-size="12">#NumVoyage</text>
	<text x="131" y="102.8" fill="#000" font-family="Verdana" font-size="12">#NumLieu</text>
	<text x="131" y="119.8" fill="#000" font-family="Verdana" font-size="12">Durée</text>
</g>

<!-- Entity VOYAGE -->
<g>
	<g>
		<rect x="284" y="9" width="88" height="25" fill="#c2a5cf" stroke="#c2a5cf" stroke-width="0" opacity="1"/>
		<rect x="284" y="34" width="88" height="111" fill="#e7d4e8" stroke="#e7d4e8" stroke-width="0" opacity="1"/>
		<rect x="284" y="9" width="88" height="136" fill="none" stroke="#9970ab" stroke-width="2" opacity="1"/>
		<line x1="284" y1="34" x2="372" y2="34" stroke="#9970ab" stroke-width="1"/>
	</g>
	<text x="303" y="26.75" fill="#000" font-family="Verdana" font-size="12">VOYAGE</text>
	<text x="289" y="51.8" fill="#000" font-family="Verdana" font-size="12">NumVoyage</text>
	<line x1="289" y1="54" x2="363" y2="54" stroke="#000" stroke-width="1"/>
	<text x="289" y="68.8" fill="#000" font-family="Verdana" font-size="12">NomVoyage</text>
	<text x="289" y="85.8" fill="#000" font-family="Verdana" font-size="12">CapacitéMin</text>
	<text x="289" y="102.8" fill="#000" font-family="Verdana" font-size="12">CapacitéMax</text>
	<text x="289" y="119.8" fill="#000" font-family="Verdana" font-size="12">DateDépart</text>
	<text x="289" y="136.8" fill="#000" font-family="Verdana" font-size="12">TypePension</text>
</g>

<!-- Entity TARIFS -->
<g>
	<g>
		<rect x="466" y="18" width="96" height="25" fill="#c2a5cf" stroke="#c2a5cf" stroke-width="0" opacity="1"/>
		<rect x="466" y="43" width="96" height="93" fill="#e7d4e8" stroke="#e7d4e8" stroke-width="0" opacity="1"/>
		<rect x="466" y="18" width="96" height="118" fill="none" stroke="#9970ab" stroke-width="2" opacity="1"/>
		<line x1="466" y1="43" x2="562" y2="43" stroke="#9970ab" stroke-width="1"/>
	</g>
	<text x="492" y="35.75" fill="#000" font-family="Verdana" font-size="12">TARIFS</text>
	<text x="471" y="60.8" fill="#000" font-family="Verdana" font-size="12">NumPrix</text>
	<line x1="471" y1="63" x2="523" y2="63" stroke="#000" stroke-width="1"/>
	<text x="471" y="77.8" fill="#000" font-family="Verdana" font-size="12">Prix</text>
	<text x="471" y="94.8" fill="#000" font-family="Verdana" font-size="12">#NumVoyage</text>
	<text x="471" y="111.8" fill="#000" font-family="Verdana" font-size="12">#DateDépart</text>
	<text x="471" y="128.8" fill="#000" font-family="Verdana" font-size="12">#TypePension</text>
</g>

<!-- Entity LIEU -->
<g>
	<g>
		<rect x="134" y="187" width="78" height="25" fill="#c2a5cf" stroke="#c2a5cf" stroke-width="0" opacity="1"/>
		<rect x="134" y="212" width="78" height="59" fill="#e7d4e8" stroke="#e7d4e8" stroke-width="0" opacity="1"/>
		<rect x="134" y="187" width="78" height="84" fill="none" stroke="#9970ab" stroke-width="2" opacity="1"/>
		<line x1="134" y1="212" x2="212" y2="212" stroke="#9970ab" stroke-width="1"/>
	</g>
	<text x="159" y="204.75" fill="#000" font-family="Verdana" font-size="12">LIEU</text>
	<text x="139" y="229.8" fill="#000" font-family="Verdana" font-size="12">NumLieu</text>
	<line x1="139" y1="232" x2="193" y2="232" stroke="#000" stroke-width="1"/>
	<text x="139" y="246.8" fill="#000" font-family="Verdana" font-size="12">#NumPays</text>
	<text x="139" y="263.8" fill="#000" font-family="Verdana" font-size="12">NomLieu</text>
</g>

<!-- Entity LIEU TOURNAGE -->
<g>
	<g>
		<rect x="360" y="170" width="122" height="25" fill="#c2a5cf" stroke="#c2a5cf" stroke-width="0" opacity="1"/>
		<rect x="360" y="195" width="122" height="93" fill="#e7d4e8" stroke="#e7d4e8" stroke-width="0" opacity="1"/>
		<rect x="360" y="170" width="122" height="118" fill="none" stroke="#9970ab" stroke-width="2" opacity="1"/>
		<line x1="360" y1="195" x2="482" y2="195" stroke="#9970ab" stroke-width="1"/>
	</g>
	<text x="371" y="187.75" fill="#000" font-family="Verdana" font-size="12">LIEU TOURNAGE</text>
	<text x="365" y="212.8" fill="#000" font-family="Verdana" font-size="12">NumLieuTournage</text>
	<line x1="365" y1="215" x2="476" y2="215" stroke="#000" stroke-width="1"/>
	<text x="365" y="229.8" fill="#000" font-family="Verdana" font-size="12">#NumLieu</text>
	<text x="365" y="246.8" fill="#000" font-family="Verdana" font-size="12">#NumPays</text>
	<text x="365" y="263.8" fill="#000" font-family="Verdana" font-size="12">NomLieuTournage</text>
	<text x="365" y="280.8" fill="#000" font-family="Verdana" font-size="12">Description</text>
</g>

<!-- Entity FILMS -->
<g>
	<g>
		<rect x="9" y="304" width="132" height="25" fill="#c2a5cf" stroke="#c2a5cf" stroke-width="0" opacity="1"/>
		<rect x="9" y="329" width="132" height="145" fill="#e7d4e8" stroke="#e7d4e8" stroke-width="0" opacity="1"/>
		<rect x="9" y="304" width="132" height="170" fill="none" stroke="#9970ab" stroke-width="2" opacity="1"/>
		<line x1="9" y1="329" x2="141" y2="329" stroke="#9970ab" stroke-width="1"/>
	</g>
	<text x="56" y="321.75" fill="#000" font-family="Verdana" font-size="12">FILMS</text>
	<text x="14" y="346.8" fill="#000" font-family="Verdana" font-size="12">NumFilm</text>
	<line x1="14" y1="349" x2="68" y2="349" stroke="#000" stroke-width="1"/>
	<text x="14" y="363.8" fill="#000" font-family="Verdana" font-size="12">#NumLieuTournage</text>
	<text x="14" y="380.8" fill="#000" font-family="Verdana" font-size="12">NomFilm</text>
	<text x="14" y="397.8" fill="#000" font-family="Verdana" font-size="12">AnnéeFilm</text>
	<text x="14" y="414.8" fill="#000" font-family="Verdana" font-size="12">BudgetFilm</text>
	<text x="14" y="431.8" fill="#000" font-family="Verdana" font-size="12">RevenuFilm</text>
	<text x="14" y="448.8" fill="#000" font-family="Verdana" font-size="12">ScoreFilm</text>
	<text x="14" y="465.8" fill="#000" font-family="Verdana" font-size="12">#PaysFinancement</text>
</g>

<!-- Entity PAYS -->
<g>
	<g>
		<rect x="378" y="313" width="86" height="25" fill="#c2a5cf" stroke="#c2a5cf" stroke-width="0" opacity="1"/>
		<rect x="378" y="338" width="86" height="127" fill="#e7d4e8" stroke="#e7d4e8" stroke-width="0" opacity="1"/>
		<rect x="378" y="313" width="86" height="152" fill="none" stroke="#9970ab" stroke-width="2" opacity="1"/>
		<line x1="378" y1="338" x2="464" y2="338" stroke="#9970ab" stroke-width="1"/>
	</g>
	<text x="405" y="330.75" fill="#000" font-family="Verdana" font-size="12">PAYS</text>
	<text x="383" y="355.8" fill="#000" font-family="Verdana" font-size="12">NumPays</text>
	<line x1="383" y1="358" x2="440" y2="358" stroke="#000" stroke-width="1"/>
	<text x="383" y="372.8" fill="#000" font-family="Verdana" font-size="12">CodePays</text>
	<text x="383" y="389.8" fill="#000" font-family="Verdana" font-size="12">NomEN</text>
	<text x="383" y="406.8" fill="#000" font-family="Verdana" font-size="12">NomFR</text>
	<text x="383" y="423.8" fill="#000" font-family="Verdana" font-size="12">Vaccinations</text>
	<text x="383" y="440.8" fill="#000" font-family="Verdana" font-size="12">Passeport</text>
	<text x="383" y="457.8" fill="#000" font-family="Verdana" font-size="12">CNI</text>
</g>

<!-- Link from &quot;NumVoyage&quot; (ETAPES) to &quot;NumVoyage&quot; (VOYAGE) -->
<path d="M220 81.5 C252 64.5 241.33 47.5 284 47.5" fill="none" stroke="#5aae61" stroke-width="2"/>
<polygon points="284 47.5 272 53.5 276 47.5 272 41.5" fill="#5aae61" stroke-width="0"/>
<circle cx="220" cy="81.5" r="2" stroke="#5aae61" stroke-width="2" fill="#5aae61"/>

<!-- Link from &quot;NumLieu&quot; (ETAPES) to &quot;NumLieu&quot; (LIEU) -->
<path d="M220 98.5 C274 162 266 225.5 212 225.5" fill="none" stroke="#5aae61" stroke-width="2"/>
<polygon points="212 225.5 224 219.5 220 225.5 224 231.5" fill="#5aae61" stroke-width="0"/>
<circle cx="220" cy="98.5" r="2" stroke="#5aae61" stroke-width="2" fill="#5aae61"/>

<!-- Link from &quot;NumVoyage&quot; (TARIFS) to &quot;NumVoyage&quot; (VOYAGE) -->
<path d="M466 90.5 C419 69 434.67 47.5 372 47.5" fill="none" stroke="#5aae61" stroke-width="2"/>
<polygon points="372 47.5 384 41.5 380 47.5 384 53.5" fill="#5aae61" stroke-width="0"/>
<circle cx="466" cy="90.5" r="2" stroke="#5aae61" stroke-width="2" fill="#5aae61"/>

<!-- Link from &quot;DateDépart&quot; (TARIFS) to &quot;DateDépart&quot; (VOYAGE) -->
<path d="M466 107.5 C419 111.5 434.67 115.5 372 115.5" fill="none" stroke="#5aae61" stroke-width="2"/>
<polygon points="372 115.5 384 109.5 380 115.5 384 121.5" fill="#5aae61" stroke-width="0"/>
<circle cx="466" cy="107.5" r="2" stroke="#5aae61" stroke-width="2" fill="#5aae61"/>

<!-- Link from &quot;TypePension&quot; (TARIFS) to &quot;TypePension&quot; (VOYAGE) -->
<path d="M466 124.5 C419 128.5 434.67 132.5 372 132.5" fill="none" stroke="#5aae61" stroke-width="2"/>
<polygon points="372 132.5 384 126.5 380 132.5 384 138.5" fill="#5aae61" stroke-width="0"/>
<circle cx="466" cy="124.5" r="2" stroke="#5aae61" stroke-width="2" fill="#5aae61"/>

<!-- Link from &quot;NumPays&quot; (LIEU) to &quot;NumPays&quot; (PAYS) -->
<path d="M212 242.5 C295 297 267.33 351.5 378 351.5" fill="none" stroke="#5aae61" stroke-width="2"/>
<polygon points="378 351.5 366 357.5 370 351.5 366 345.5" fill="#5aae61" stroke-width="0"/>
<circle cx="212" cy="242.5" r="2" stroke="#5aae61" stroke-width="2" fill="#5aae61"/>

<!-- Link from &quot;NumLieu&quot; (LIEU TOURNAGE) to &quot;NumLieu&quot; (LIEU) -->
<path d="M360 225.5 C286 225.5 310.67 225.5 212 225.5" fill="none" stroke="#5aae61" stroke-width="2"/>
<polygon points="212 225.5 224 219.5 220 225.5 224 231.5" fill="#5aae61" stroke-width="0"/>
<circle cx="360" cy="225.5" r="2" stroke="#5aae61" stroke-width="2" fill="#5aae61"/>

<!-- Link from &quot;NumPays&quot; (LIEU TOURNAGE) to &quot;NumPays&quot; (PAYS) -->
<path d="M482 242.5 C536 297 518 351.5 464 351.5" fill="none" stroke="#5aae61" stroke-width="2"/>
<polygon points="464 351.5 476 345.5 472 351.5 476 357.5" fill="#5aae61" stroke-width="0"/>
<circle cx="482" cy="242.5" r="2" stroke="#5aae61" stroke-width="2" fill="#5aae61"/>

<!-- Link from &quot;NumLieuTournage&quot; (FILMS) to &quot;NumLieuTournage&quot; (LIEU TOURNAGE) -->
<path d="M141 359.5 C250.5 284 214 208.5 360 208.5" fill="none" stroke="#5aae61" stroke-width="2"/>
<polygon points="360 208.5 348 214.5 352 208.5 348 202.5" fill="#5aae61" stroke-width="0"/>
<circle cx="141" cy="359.5" r="2" stroke="#5aae61" stroke-width="2" fill="#5aae61"/>

<!-- Link from &quot;NumPays&quot; (FILMS) to &quot;NumPays&quot; (PAYS) -->
<path d="M141 461.5 C259.5 406.5 220 351.5 378 351.5" fill="none" stroke="#5aae61" stroke-width="2"/>
<polygon points="378 351.5 366 357.5 370 351.5 366 345.5" fill="#5aae61" stroke-width="0"/>
<circle cx="141" cy="461.5" r="2" stroke="#5aae61" stroke-width="2" fill="#5aae61"/>
</svg>