<?xml version="1.0" encoding="utf-8"?>
<!-- Generated by Mocodo 4.1.1 -->
<svg width="1381" height="846" viewBox="0 0 1381 846" xmlns="http://www.w3.org/2000/svg">
<rect x="0" y="0" width="1381" height="846" fill="#f5f5f5" stroke="none" stroke-width="0"/>

<!-- Entity PRODUIT -->
<g>
	<g>
		<rect x="169" y="9" width="104" height="25" fill="#80cdc1" stroke="none" stroke-width="0" opacity="1"/>
		<rect x="169" y="34" width="104" height="93" fill="#c7eae5" stroke="none" stroke-width="0" opacity="1"/>
		<rect x="169" y="9" width="104" height="118" fill="none" stroke="#35978f" stroke-width="2" opacity="1"/>
		<line x1="169" y1="34" x2="273" y2="34" stroke="#35978f" stroke-width="1"/>
	</g>
	<text x="193" y="26.75" fill="#000000" font-family="Verdana" font-size="12">PRODUIT</text>
	<text x="174" y="51.8" fill="#000000" font-family="Verdana" font-size="12">idProduit</text>
	<line x1="174" y1="54" x2="228" y2="54" stroke="#000000" stroke-width="1"/>
	<text x="174" y="68.8" fill="#000000" font-family="Verdana" font-size="12">Prix</text>
	<text x="174" y="85.8" fill="#000000" font-family="Verdana" font-size="12">Description</text>
	<text x="174" y="102.8" fill="#000000" font-family="Verdana" font-size="12">Spécifications</text>
	<text x="174" y="119.8" fill="#000000" font-family="Verdana" font-size="12">FicheTechnique</text>
</g>

<!-- Entity LIGNECOMMANDE -->
<g>
	<g>
		<rect x="492" y="26" width="122" height="25" fill="#80cdc1" stroke="none" stroke-width="0" opacity="1"/>
		<rect x="492" y="51" width="122" height="59" fill="#c7eae5" stroke="none" stroke-width="0" opacity="1"/>
		<rect x="492" y="26" width="122" height="84" fill="none" stroke="#35978f" stroke-width="2" opacity="1"/>
		<line x1="492" y1="51" x2="614" y2="51" stroke="#35978f" stroke-width="1"/>
	</g>
	<text x="498" y="43.75" fill="#000000" font-family="Verdana" font-size="12">LIGNECOMMANDE</text>
	<text x="497" y="68.8" fill="#000000" font-family="Verdana" font-size="12">idCommande</text>
	<line x1="497" y1="71" x2="577" y2="71" stroke="#000000" stroke-width="1"/>
	<text x="497" y="85.8" fill="#000000" font-family="Verdana" font-size="12">idProduit</text>
	<line x1="497" y1="88" x2="551" y2="88" stroke="#000000" stroke-width="1"/>
	<text x="497" y="102.8" fill="#000000" font-family="Verdana" font-size="12">NbProduit</text>
</g>

<!-- Entity COMMANDE -->
<g>
	<g>
		<rect x="982" y="9" width="108" height="25" fill="#80cdc1" stroke="none" stroke-width="0" opacity="1"/>
		<rect x="982" y="34" width="108" height="93" fill="#c7eae5" stroke="none" stroke-width="0" opacity="1"/>
		<rect x="982" y="9" width="108" height="118" fill="none" stroke="#35978f" stroke-width="2" opacity="1"/>
		<line x1="982" y1="34" x2="1090" y2="34" stroke="#35978f" stroke-width="1"/>
	</g>
	<text x="1000" y="26.75" fill="#000000" font-family="Verdana" font-size="12">COMMANDE</text>
	<text x="987" y="51.8" fill="#000000" font-family="Verdana" font-size="12">idCommande</text>
	<line x1="987" y1="54" x2="1067" y2="54" stroke="#000000" stroke-width="1"/>
	<text x="987" y="68.8" fill="#000000" font-family="Verdana" font-size="12">DateCommande</text>
	<text x="987" y="85.8" fill="#000000" font-family="Verdana" font-size="12">TauxTVA</text>
	<text x="987" y="102.8" fill="#000000" font-family="Verdana" font-size="12">idSite</text>
	<text x="987" y="119.8" fill="#000000" font-family="Verdana" font-size="12">idClient</text>
</g>

<!-- Entity STOCK -->
<g>
	<g>
		<rect x="505" y="135" width="96" height="25" fill="#80cdc1" stroke="none" stroke-width="0" opacity="1"/>
		<rect x="505" y="160" width="96" height="111" fill="#c7eae5" stroke="none" stroke-width="0" opacity="1"/>
		<rect x="505" y="135" width="96" height="136" fill="none" stroke="#35978f" stroke-width="2" opacity="1"/>
		<line x1="505" y1="160" x2="601" y2="160" stroke="#35978f" stroke-width="1"/>
	</g>
	<text x="532" y="152.75" fill="#000000" font-family="Verdana" font-size="12">STOCK</text>
	<text x="510" y="177.8" fill="#000000" font-family="Verdana" font-size="12">idProduit</text>
	<line x1="510" y1="180" x2="564" y2="180" stroke="#000000" stroke-width="1"/>
	<text x="510" y="194.8" fill="#000000" font-family="Verdana" font-size="12">idEntrepot</text>
	<text x="510" y="211.8" fill="#000000" font-family="Verdana" font-size="12">QuantiteStock</text>
	<text x="510" y="228.8" fill="#000000" font-family="Verdana" font-size="12">Référence</text>
	<text x="510" y="245.8" fill="#000000" font-family="Verdana" font-size="12">NumBaie</text>
	<text x="510" y="262.8" fill="#000000" font-family="Verdana" font-size="12">NumRangée</text>
</g>

<!-- Entity ENTREPOT -->
<g>
	<g>
		<rect x="678" y="144" width="144" height="25" fill="#80cdc1" stroke="none" stroke-width="0" opacity="1"/>
		<rect x="678" y="169" width="144" height="93" fill="#c7eae5" stroke="none" stroke-width="0" opacity="1"/>
		<rect x="678" y="144" width="144" height="118" fill="none" stroke="#35978f" stroke-width="2" opacity="1"/>
		<line x1="678" y1="169" x2="822" y2="169" stroke="#35978f" stroke-width="1"/>
	</g>
	<text x="718" y="161.75" fill="#000000" font-family="Verdana" font-size="12">ENTREPOT</text>
	<text x="683" y="186.8" fill="#000000" font-family="Verdana" font-size="12">idEntrepot</text>
	<line x1="683" y1="189" x2="746" y2="189" stroke="#000000" stroke-width="1"/>
	<text x="683" y="203.8" fill="#000000" font-family="Verdana" font-size="12">AddresseEntrepot</text>
	<text x="683" y="220.8" fill="#000000" font-family="Verdana" font-size="12">QuaiDeDéchargement</text>
	<text x="683" y="237.8" fill="#000000" font-family="Verdana" font-size="12">CodeDepartement</text>
	<text x="683" y="254.8" fill="#000000" font-family="Verdana" font-size="12">CodeVille</text>
</g>

<!-- Entity VILLE -->
<g>
	<g>
		<rect x="1218" y="254" width="122" height="25" fill="#80cdc1" stroke="none" stroke-width="0" opacity="1"/>
		<rect x="1218" y="279" width="122" height="59" fill="#c7eae5" stroke="none" stroke-width="0" opacity="1"/>
		<rect x="1218" y="254" width="122" height="84" fill="none" stroke="#35978f" stroke-width="2" opacity="1"/>
		<line x1="1218" y1="279" x2="1340" y2="279" stroke="#35978f" stroke-width="1"/>
	</g>
	<text x="1262" y="271.75" fill="#000000" font-family="Verdana" font-size="12">VILLE</text>
	<text x="1223" y="296.8" fill="#000000" font-family="Verdana" font-size="12">CodeDepartement</text>
	<line x1="1223" y1="299" x2="1334" y2="299" stroke="#000000" stroke-width="1"/>
	<text x="1223" y="313.8" fill="#000000" font-family="Verdana" font-size="12">CodeVille</text>
	<line x1="1223" y1="316" x2="1280" y2="316" stroke="#000000" stroke-width="1"/>
	<text x="1223" y="330.8" fill="#000000" font-family="Verdana" font-size="12">NomVille</text>
</g>

<!-- Entity DEPARTEMENT -->
<g>
	<g>
		<rect x="1218" y="363" width="122" height="25" fill="#80cdc1" stroke="none" stroke-width="0" opacity="1"/>
		<rect x="1218" y="388" width="122" height="43" fill="#c7eae5" stroke="none" stroke-width="0" opacity="1"/>
		<rect x="1218" y="363" width="122" height="68" fill="none" stroke="#35978f" stroke-width="2" opacity="1"/>
		<line x1="1218" y1="388" x2="1340" y2="388" stroke="#35978f" stroke-width="1"/>
	</g>
	<text x="1234" y="380.75" fill="#000000" font-family="Verdana" font-size="12">DEPARTEMENT</text>
	<text x="1223" y="405.8" fill="#000000" font-family="Verdana" font-size="12">CodeDepartement</text>
	<line x1="1223" y1="408" x2="1334" y2="408" stroke="#000000" stroke-width="1"/>
	<text x="1223" y="422.8" fill="#000000" font-family="Verdana" font-size="12">NomDepartement</text>
</g>

<!-- Entity INTERLOCUTEUR -->
<g>
	<g>
		<rect x="401" y="465" width="118" height="25" fill="#80cdc1" stroke="none" stroke-width="0" opacity="1"/>
		<rect x="401" y="490" width="118" height="127" fill="#c7eae5" stroke="none" stroke-width="0" opacity="1"/>
		<rect x="401" y="465" width="118" height="152" fill="none" stroke="#35978f" stroke-width="2" opacity="1"/>
		<line x1="401" y1="490" x2="519" y2="490" stroke="#35978f" stroke-width="1"/>
	</g>
	<text x="408" y="482.75" fill="#000000" font-family="Verdana" font-size="12">INTERLOCUTEUR</text>
	<text x="406" y="507.8" fill="#000000" font-family="Verdana" font-size="12">idInterloc</text>
	<line x1="406" y1="510" x2="464" y2="510" stroke="#000000" stroke-width="1"/>
	<text x="406" y="524.8" fill="#000000" font-family="Verdana" font-size="12">PrenomInterloc</text>
	<text x="406" y="541.8" fill="#000000" font-family="Verdana" font-size="12">NomInterlocuteur</text>
	<text x="406" y="558.8" fill="#000000" font-family="Verdana" font-size="12">EmailInterloc</text>
	<text x="406" y="575.8" fill="#000000" font-family="Verdana" font-size="12">RoleInterloc</text>
	<text x="406" y="592.8" fill="#000000" font-family="Verdana" font-size="12">TelInterloc</text>
	<text x="406" y="609.8" fill="#000000" font-family="Verdana" font-size="12">idClient</text>
</g>

<!-- Entity CLIENT -->
<g>
	<g>
		<rect x="689" y="422" width="122" height="25" fill="#80cdc1" stroke="none" stroke-width="0" opacity="1"/>
		<rect x="689" y="447" width="122" height="213" fill="#c7eae5" stroke="none" stroke-width="0" opacity="1"/>
		<rect x="689" y="422" width="122" height="238" fill="none" stroke="#35978f" stroke-width="2" opacity="1"/>
		<line x1="689" y1="447" x2="811" y2="447" stroke="#35978f" stroke-width="1"/>
	</g>
	<text x="728" y="439.75" fill="#000000" font-family="Verdana" font-size="12">CLIENT</text>
	<text x="694" y="464.8" fill="#000000" font-family="Verdana" font-size="12">idClient</text>
	<line x1="694" y1="467" x2="740" y2="467" stroke="#000000" stroke-width="1"/>
	<text x="694" y="481.8" fill="#000000" font-family="Verdana" font-size="12">RaisonSociale</text>
	<text x="694" y="498.8" fill="#000000" font-family="Verdana" font-size="12">StatutJuridique</text>
	<text x="694" y="515.8" fill="#000000" font-family="Verdana" font-size="12">NomJuridique</text>
	<text x="694" y="532.8" fill="#000000" font-family="Verdana" font-size="12">AdresseSiege</text>
	<text x="694" y="549.8" fill="#000000" font-family="Verdana" font-size="12">TelClient</text>
	<text x="694" y="566.8" fill="#000000" font-family="Verdana" font-size="12">EmailClient</text>
	<text x="694" y="583.8" fill="#000000" font-family="Verdana" font-size="12">Siret</text>
	<text x="694" y="600.8" fill="#000000" font-family="Verdana" font-size="12">IBAN</text>
	<text x="694" y="617.8" fill="#000000" font-family="Verdana" font-size="12">BIC</text>
	<text x="694" y="634.8" fill="#000000" font-family="Verdana" font-size="12">CodeDepartement</text>
	<text x="694" y="651.8" fill="#000000" font-family="Verdana" font-size="12">CodeVille</text>
</g>

<!-- Entity SITE -->
<g>
	<g>
		<rect x="689" y="685" width="122" height="25" fill="#80cdc1" stroke="none" stroke-width="0" opacity="1"/>
		<rect x="689" y="710" width="122" height="127" fill="#c7eae5" stroke="none" stroke-width="0" opacity="1"/>
		<rect x="689" y="685" width="122" height="152" fill="none" stroke="#35978f" stroke-width="2" opacity="1"/>
		<line x1="689" y1="710" x2="811" y2="710" stroke="#35978f" stroke-width="1"/>
	</g>
	<text x="736" y="702.75" fill="#000000" font-family="Verdana" font-size="12">SITE</text>
	<text x="694" y="727.8" fill="#000000" font-family="Verdana" font-size="12">idSite</text>
	<line x1="694" y1="730" x2="729" y2="730" stroke="#000000" stroke-width="1"/>
	<text x="694" y="744.8" fill="#000000" font-family="Verdana" font-size="12">NomSite</text>
	<text x="694" y="761.8" fill="#000000" font-family="Verdana" font-size="12">Adresse</text>
	<text x="694" y="778.8" fill="#000000" font-family="Verdana" font-size="12">CodeDepartement</text>
	<line x1="694" y1="781" x2="805" y2="781" stroke="#000000" stroke-width="1"/>
	<text x="694" y="795.8" fill="#000000" font-family="Verdana" font-size="12">CodeVille</text>
	<text x="694" y="812.8" fill="#000000" font-family="Verdana" font-size="12">idClient</text>
	<text x="694" y="829.8" fill="#000000" font-family="Verdana" font-size="12">idInterloc</text>
</g>

<!-- Link from &quot;idCommande&quot; (LIGNECOMMANDE) to &quot;idCommande&quot; (COMMANDE) -->
<path d="M614 64.5 C798 56 736.67 47.5 982 47.5" fill="none" stroke="#bf812d" stroke-width="2"/>
<polygon points="982 47.5 970 53.5 974 47.5 970 41.5" fill="#bf812d" stroke-width="0"/>
<circle cx="614" cy="64.5" r="2" stroke="#bf812d" stroke-width="2" fill="#bf812d"/>

<!-- Link from &quot;idProduit&quot; (LIGNECOMMANDE) to &quot;idProduit&quot; (PRODUIT) -->
<path d="M492 81.5 C382.5 64.5 419 47.5 273 47.5" fill="none" stroke="#bf812d" stroke-width="2"/>
<polygon points="273 47.5 285 41.5 281 47.5 285 53.5" fill="#bf812d" stroke-width="0"/>
<circle cx="492" cy="81.5" r="2" stroke="#bf812d" stroke-width="2" fill="#bf812d"/>

<!-- Link from &quot;idSite&quot; (COMMANDE) to &quot;idSite&quot; (SITE) -->
<path d="M982 98.5 C896.5 411 925 723.5 811 723.5" fill="none" stroke="#bf812d" stroke-width="2"/>
<polygon points="811 723.5 823 717.5 819 723.5 823 729.5" fill="#bf812d" stroke-width="0"/>
<circle cx="982" cy="98.5" r="2" stroke="#bf812d" stroke-width="2" fill="#bf812d"/>

<!-- Link from &quot;idClient&quot; (COMMANDE) to &quot;idClient&quot; (CLIENT) -->
<path d="M982 115.5 C896.5 288 925 460.5 811 460.5" fill="none" stroke="#bf812d" stroke-width="2"/>
<polygon points="811 460.5 823 454.5 819 460.5 823 466.5" fill="#bf812d" stroke-width="0"/>
<circle cx="982" cy="115.5" r="2" stroke="#bf812d" stroke-width="2" fill="#bf812d"/>

<!-- Link from &quot;idProduit&quot; (STOCK) to &quot;idProduit&quot; (PRODUIT) -->
<path d="M505 173.5 C389 110.5 427.67 47.5 273 47.5" fill="none" stroke="#bf812d" stroke-width="2"/>
<polygon points="273 47.5 285 41.5 281 47.5 285 53.5" fill="#bf812d" stroke-width="0"/>
<circle cx="505" cy="173.5" r="2" stroke="#bf812d" stroke-width="2" fill="#bf812d"/>

<!-- Link from &quot;idEntrepot&quot; (STOCK) to &quot;idEntrepot&quot; (ENTREPOT) -->
<path d="M601 190.5 C639.5 186.5 626.67 182.5 678 182.5" fill="none" stroke="#bf812d" stroke-width="2"/>
<polygon points="678 182.5 666 188.5 670 182.5 666 176.5" fill="#bf812d" stroke-width="0"/>
<circle cx="601" cy="190.5" r="2" stroke="#bf812d" stroke-width="2" fill="#bf812d"/>

<!-- Link from &quot;CodeDepartement&quot; (ENTREPOT) to &quot;CodeDepartement&quot; (DEPARTEMENT) -->
<path d="M822 233.5 C1020 317.5 954 401.5 1218 401.5" fill="none" stroke="#bf812d" stroke-width="2"/>
<polygon points="1218 401.5 1206 407.5 1210 401.5 1206 395.5" fill="#bf812d" stroke-width="0"/>
<circle cx="822" cy="233.5" r="2" stroke="#bf812d" stroke-width="2" fill="#bf812d"/>

<!-- Link from &quot;CodeVille&quot; (ENTREPOT) to &quot;CodeVille&quot; (VILLE) -->
<path d="M822 250.5 C1020 280 954 309.5 1218 309.5" fill="none" stroke="#bf812d" stroke-width="2"/>
<polygon points="1218 309.5 1206 315.5 1210 309.5 1206 303.5" fill="#bf812d" stroke-width="0"/>
<circle cx="822" cy="250.5" r="2" stroke="#bf812d" stroke-width="2" fill="#bf812d"/>

<!-- Link from &quot;CodeDepartement&quot; (VILLE) to &quot;CodeDepartement&quot; (DEPARTEMENT) -->
<path d="M1340 292.5 C1394 347 1394 401.5 1340 401.5" fill="none" stroke="#bf812d" stroke-width="2"/>
<polygon points="1340 401.5 1352 395.5 1348 401.5 1352 407.5" fill="#bf812d" stroke-width="0"/>
<circle cx="1340" cy="292.5" r="2" stroke="#bf812d" stroke-width="2" fill="#bf812d"/>

<!-- Link from &quot;CodeVille&quot; (VILLE) to &quot;CodeVille&quot; (VILLE) -->
<path d="M1218 309.5 C1164 309.5 1164 309.5 1218 309.5" fill="none" stroke="#bf812d" stroke-width="2"/>
<polygon points="1218 309.5 1206 315.5 1210 309.5 1206 303.5" fill="#bf812d" stroke-width="0"/>
<circle cx="1218" cy="309.5" r="2" stroke="#bf812d" stroke-width="2" fill="#bf812d"/>

<!-- Link from &quot;idClient&quot; (INTERLOCUTEUR) to &quot;idClient&quot; (CLIENT) -->
<path d="M519 605.5 C604 533 575.67 460.5 689 460.5" fill="none" stroke="#bf812d" stroke-width="2"/>
<polygon points="689 460.5 677 466.5 681 460.5 677 454.5" fill="#bf812d" stroke-width="0"/>
<circle cx="519" cy="605.5" r="2" stroke="#bf812d" stroke-width="2" fill="#bf812d"/>

<!-- Link from &quot;CodeDepartement&quot; (CLIENT) to &quot;CodeDepartement&quot; (DEPARTEMENT) -->
<path d="M811 630.5 C1014.5 516 946.67 401.5 1218 401.5" fill="none" stroke="#bf812d" stroke-width="2"/>
<polygon points="1218 401.5 1206 407.5 1210 401.5 1206 395.5" fill="#bf812d" stroke-width="0"/>
<circle cx="811" cy="630.5" r="2" stroke="#bf812d" stroke-width="2" fill="#bf812d"/>

<!-- Link from &quot;CodeVille&quot; (CLIENT) to &quot;CodeVille&quot; (VILLE) -->
<path d="M811 647.5 C1014.5 478.5 946.67 309.5 1218 309.5" fill="none" stroke="#bf812d" stroke-width="2"/>
<polygon points="1218 309.5 1206 315.5 1210 309.5 1206 303.5" fill="#bf812d" stroke-width="0"/>
<circle cx="811" cy="647.5" r="2" stroke="#bf812d" stroke-width="2" fill="#bf812d"/>

<!-- Link from &quot;CodeDepartement&quot; (SITE) to &quot;CodeDepartement&quot; (DEPARTEMENT) -->
<path d="M811 774.5 C1014.5 588 946.67 401.5 1218 401.5" fill="none" stroke="#bf812d" stroke-width="2"/>
<polygon points="1218 401.5 1206 407.5 1210 401.5 1206 395.5" fill="#bf812d" stroke-width="0"/>
<circle cx="811" cy="774.5" r="2" stroke="#bf812d" stroke-width="2" fill="#bf812d"/>

<!-- Link from &quot;CodeVille&quot; (SITE) to &quot;CodeVille&quot; (VILLE) -->
<path d="M811 791.5 C1014.5 550.5 946.67 309.5 1218 309.5" fill="none" stroke="#bf812d" stroke-width="2"/>
<polygon points="1218 309.5 1206 315.5 1210 309.5 1206 303.5" fill="#bf812d" stroke-width="0"/>
<circle cx="811" cy="791.5" r="2" stroke="#bf812d" stroke-width="2" fill="#bf812d"/>

<!-- Link from &quot;idClient&quot; (SITE) to &quot;idClient&quot; (CLIENT) -->
<path d="M689 808.5 C635 634.5 635 460.5 689 460.5" fill="none" stroke="#bf812d" stroke-width="2"/>
<polygon points="689 460.5 677 466.5 681 460.5 677 454.5" fill="#bf812d" stroke-width="0"/>
<circle cx="689" cy="808.5" r="2" stroke="#bf812d" stroke-width="2" fill="#bf812d"/>

<!-- Link from &quot;idInterloc&quot; (SITE) to &quot;idInterloc&quot; (INTERLOCUTEUR) -->
<path d="M689 825.5 C604 664.5 632.33 503.5 519 503.5" fill="none" stroke="#bf812d" stroke-width="2"/>
<polygon points="519 503.5 531 497.5 527 503.5 531 509.5" fill="#bf812d" stroke-width="0"/>
<circle cx="689" cy="825.5" r="2" stroke="#bf812d" stroke-width="2" fill="#bf812d"/>
</svg>