<?xml version="1.0" encoding="utf-8"?>
<!-- Generated by Mocodo 4.0.4 -->
<svg width="1180" height="559" viewBox="0 0 1180 559" xmlns="http://www.w3.org/2000/svg">
<rect x="0" y="0" width="1180" height="559" fill="#ffffbf" stroke="none" stroke-width="0"/>

<!-- Entity CLUB -->
<g>
	<g>
		<rect x="456" y="9" width="88" height="25" fill="#fdae61" stroke="none" stroke-width="0" opacity="1"/>
		<rect x="456" y="34" width="88" height="77" fill="#fee08b" stroke="none" stroke-width="0" opacity="1"/>
		<rect x="456" y="9" width="88" height="102" fill="none" stroke="#f46d43" stroke-width="2" opacity="1"/>
		<line x1="456" y1="34" x2="544" y2="34" stroke="#f46d43" stroke-width="1"/>
	</g>
	<text x="484" y="26.75" fill="#000000" font-family="Verdana" font-size="12">CLUB</text>
	<text x="461" y="51.8" fill="#000000" font-family="Verdana" font-size="12">idClub</text>
	<line x1="461" y1="54" x2="500" y2="54" stroke="#000000" stroke-width="1"/>
	<text x="461" y="68.8" fill="#000000" font-family="Verdana" font-size="12">NomClub</text>
	<text x="461" y="85.8" fill="#000000" font-family="Verdana" font-size="12">#CPVille</text>
	<text x="461" y="102.8" fill="#000000" font-family="Verdana" font-size="12">#idPresident</text>
</g>

<!-- Entity dispose_de -->
<g>
	<g>
		<rect x="625" y="26" width="88" height="25" fill="#fdae61" stroke="none" stroke-width="0" opacity="1"/>
		<rect x="625" y="51" width="88" height="43" fill="#fee08b" stroke="none" stroke-width="0" opacity="1"/>
		<rect x="625" y="26" width="88" height="68" fill="none" stroke="#f46d43" stroke-width="2" opacity="1"/>
		<line x1="625" y1="51" x2="713" y2="51" stroke="#f46d43" stroke-width="1"/>
	</g>
	<text x="635" y="43.75" fill="#000000" font-family="Verdana" font-size="12">dispose_de</text>
	<text x="630" y="68.8" fill="#000000" font-family="Verdana" font-size="12">#idClub</text>
	<line x1="630" y1="71" x2="678" y2="71" stroke="#000000" stroke-width="1"/>
	<text x="630" y="85.8" fill="#000000" font-family="Verdana" font-size="12">#idGymnase</text>
	<line x1="630" y1="88" x2="708" y2="88" stroke="#000000" stroke-width="1"/>
</g>

<!-- Entity GYMNASE -->
<g>
	<g>
		<rect x="777" y="9" width="122" height="25" fill="#fdae61" stroke="none" stroke-width="0" opacity="1"/>
		<rect x="777" y="34" width="122" height="77" fill="#fee08b" stroke="none" stroke-width="0" opacity="1"/>
		<rect x="777" y="9" width="122" height="102" fill="none" stroke="#f46d43" stroke-width="2" opacity="1"/>
		<line x1="777" y1="34" x2="899" y2="34" stroke="#f46d43" stroke-width="1"/>
	</g>
	<text x="808" y="26.75" fill="#000000" font-family="Verdana" font-size="12">GYMNASE</text>
	<text x="782" y="51.8" fill="#000000" font-family="Verdana" font-size="12">idGymnase</text>
	<line x1="782" y1="54" x2="850" y2="54" stroke="#000000" stroke-width="1"/>
	<text x="782" y="68.8" fill="#000000" font-family="Verdana" font-size="12">NomGymnase</text>
	<text x="782" y="85.8" fill="#000000" font-family="Verdana" font-size="12">AddresseGymnase</text>
	<text x="782" y="102.8" fill="#000000" font-family="Verdana" font-size="12">#CPVille</text>
</g>

<!-- Entity VILLE -->
<g>
	<g>
		<rect x="637" y="119" width="64" height="25" fill="#fdae61" stroke="none" stroke-width="0" opacity="1"/>
		<rect x="637" y="144" width="64" height="43" fill="#fee08b" stroke="none" stroke-width="0" opacity="1"/>
		<rect x="637" y="119" width="64" height="68" fill="none" stroke="#f46d43" stroke-width="2" opacity="1"/>
		<line x1="637" y1="144" x2="701" y2="144" stroke="#f46d43" stroke-width="1"/>
	</g>
	<text x="652" y="136.75" fill="#000000" font-family="Verdana" font-size="12">VILLE</text>
	<text x="642" y="161.8" fill="#000000" font-family="Verdana" font-size="12">CPVille</text>
	<line x1="642" y1="164" x2="684" y2="164" stroke="#000000" stroke-width="1"/>
	<text x="642" y="178.8" fill="#000000" font-family="Verdana" font-size="12">NomVille</text>
</g>

<!-- Entity MEMBRE -->
<g>
	<g>
		<rect x="9" y="178" width="182" height="25" fill="#fdae61" stroke="none" stroke-width="0" opacity="1"/>
		<rect x="9" y="203" width="182" height="161" fill="#fee08b" stroke="none" stroke-width="0" opacity="1"/>
		<rect x="9" y="178" width="182" height="186" fill="none" stroke="#f46d43" stroke-width="2" opacity="1"/>
		<line x1="9" y1="203" x2="191" y2="203" stroke="#f46d43" stroke-width="1"/>
	</g>
	<text x="74" y="195.75" fill="#000000" font-family="Verdana" font-size="12">MEMBRE</text>
	<text x="14" y="220.8" fill="#000000" font-family="Verdana" font-size="12">idMembre</text>
	<line x1="14" y1="223" x2="75" y2="223" stroke="#000000" stroke-width="1"/>
	<text x="14" y="237.8" fill="#000000" font-family="Verdana" font-size="12">PrenomMembre</text>
	<text x="14" y="254.8" fill="#000000" font-family="Verdana" font-size="12">NomMembre</text>
	<text x="14" y="271.8" fill="#000000" font-family="Verdana" font-size="12">#idClub</text>
	<text x="14" y="288.8" fill="#000000" font-family="Verdana" font-size="12">TelMembre</text>
	<text x="14" y="305.8" fill="#000000" font-family="Verdana" font-size="12">AddresseMembre</text>
	<text x="14" y="322.8" fill="#000000" font-family="Verdana" font-size="12">DateNaissance</text>
	<text x="14" y="339.8" fill="#000000" font-family="Verdana" font-size="12">EmailMembre VARCHAR(50)</text>
	<text x="14" y="356.8" fill="#000000" font-family="Verdana" font-size="12">#idCategorie</text>
</g>

<!-- Entity participe_à -->
<g>
	<g>
		<rect x="447" y="237" width="106" height="25" fill="#fdae61" stroke="none" stroke-width="0" opacity="1"/>
		<rect x="447" y="262" width="106" height="43" fill="#fee08b" stroke="none" stroke-width="0" opacity="1"/>
		<rect x="447" y="237" width="106" height="68" fill="none" stroke="#f46d43" stroke-width="2" opacity="1"/>
		<line x1="447" y1="262" x2="553" y2="262" stroke="#f46d43" stroke-width="1"/>
	</g>
	<text x="466" y="254.75" fill="#000000" font-family="Verdana" font-size="12">participe_à</text>
	<text x="452" y="279.8" fill="#000000" font-family="Verdana" font-size="12">#idMembre</text>
	<line x1="452" y1="282" x2="522" y2="282" stroke="#000000" stroke-width="1"/>
	<text x="452" y="296.8" fill="#000000" font-family="Verdana" font-size="12">#idCompetition</text>
	<line x1="452" y1="299" x2="547" y2="299" stroke="#000000" stroke-width="1"/>
</g>

<!-- Entity COMPETITION -->
<g>
	<g>
		<rect x="1059" y="195" width="112" height="25" fill="#fdae61" stroke="none" stroke-width="0" opacity="1"/>
		<rect x="1059" y="220" width="112" height="127" fill="#fee08b" stroke="none" stroke-width="0" opacity="1"/>
		<rect x="1059" y="195" width="112" height="152" fill="none" stroke="#f46d43" stroke-width="2" opacity="1"/>
		<line x1="1059" y1="220" x2="1171" y2="220" stroke="#f46d43" stroke-width="1"/>
	</g>
	<text x="1072" y="212.75" fill="#000000" font-family="Verdana" font-size="12">COMPETITION</text>
	<text x="1064" y="237.8" fill="#000000" font-family="Verdana" font-size="12">idCompetition</text>
	<line x1="1064" y1="240" x2="1149" y2="240" stroke="#000000" stroke-width="1"/>
	<text x="1064" y="254.8" fill="#000000" font-family="Verdana" font-size="12">DateCompetition</text>
	<text x="1064" y="271.8" fill="#000000" font-family="Verdana" font-size="12">HeureDebut</text>
	<text x="1064" y="288.8" fill="#000000" font-family="Verdana" font-size="12">HeureFin</text>
	<text x="1064" y="305.8" fill="#000000" font-family="Verdana" font-size="12">#idCategorie</text>
	<text x="1064" y="322.8" fill="#000000" font-family="Verdana" font-size="12">#idGymnase</text>
	<text x="1064" y="339.8" fill="#000000" font-family="Verdana" font-size="12">#idKata</text>
</g>

<!-- Entity CAT_AGE -->
<g>
	<g>
		<rect x="536" y="355" width="98" height="25" fill="#fdae61" stroke="none" stroke-width="0" opacity="1"/>
		<rect x="536" y="380" width="98" height="43" fill="#fee08b" stroke="none" stroke-width="0" opacity="1"/>
		<rect x="536" y="355" width="98" height="68" fill="none" stroke="#f46d43" stroke-width="2" opacity="1"/>
		<line x1="536" y1="380" x2="634" y2="380" stroke="#f46d43" stroke-width="1"/>
	</g>
	<text x="556" y="372.75" fill="#000000" font-family="Verdana" font-size="12">CAT_AGE</text>
	<text x="541" y="397.8" fill="#000000" font-family="Verdana" font-size="12">idCategorie</text>
	<line x1="541" y1="400" x2="611" y2="400" stroke="#000000" stroke-width="1"/>
	<text x="541" y="414.8" fill="#000000" font-family="Verdana" font-size="12">NomCategorie</text>
</g>

<!-- Entity KATA -->
<g>
	<g>
		<rect x="533" y="448" width="104" height="25" fill="#fdae61" stroke="none" stroke-width="0" opacity="1"/>
		<rect x="533" y="473" width="104" height="77" fill="#fee08b" stroke="none" stroke-width="0" opacity="1"/>
		<rect x="533" y="448" width="104" height="102" fill="none" stroke="#f46d43" stroke-width="2" opacity="1"/>
		<line x1="533" y1="473" x2="637" y2="473" stroke="#f46d43" stroke-width="1"/>
	</g>
	<text x="569" y="465.75" fill="#000000" font-family="Verdana" font-size="12">KATA</text>
	<text x="538" y="490.8" fill="#000000" font-family="Verdana" font-size="12">idKata</text>
	<line x1="538" y1="493" x2="577" y2="493" stroke="#000000" stroke-width="1"/>
	<text x="538" y="507.8" fill="#000000" font-family="Verdana" font-size="12">NomKata</text>
	<text x="538" y="524.8" fill="#000000" font-family="Verdana" font-size="12">NomKataFR</text>
	<text x="538" y="541.8" fill="#000000" font-family="Verdana" font-size="12">NbMouvements</text>
</g>

<!-- Link from &quot;CPVille&quot; (CLUB) to &quot;CPVille&quot; (VILLE) -->
<path d="M544 81.5 C590.5 119.5 575 157.5 637 157.5" fill="none" stroke="#66bd63" stroke-width="2"/>
<polygon points="637 157.5 625 163.5 629 157.5 625 151.5" fill="#66bd63" stroke-width="0"/>
<circle cx="544" cy="81.5" r="2" stroke="#66bd63" stroke-width="2" fill="#66bd63"/>

<!-- Link from &quot;idMembre&quot; (CLUB) to &quot;idMembre&quot; (MEMBRE) -->
<path d="M456 98.5 C323.5 157.5 367.67 216.5 191 216.5" fill="none" stroke="#66bd63" stroke-width="2"/>
<polygon points="191 216.5 203 210.5 199 216.5 203 222.5" fill="#66bd63" stroke-width="0"/>
<circle cx="456" cy="98.5" r="2" stroke="#66bd63" stroke-width="2" fill="#66bd63"/>

<!-- Link from &quot;idClub&quot; (dispose_de) to &quot;idClub&quot; (CLUB) -->
<path d="M625 64.5 C584.5 56 598 47.5 544 47.5" fill="none" stroke="#66bd63" stroke-width="2"/>
<polygon points="544 47.5 556 41.5 552 47.5 556 53.5" fill="#66bd63" stroke-width="0"/>
<circle cx="625" cy="64.5" r="2" stroke="#66bd63" stroke-width="2" fill="#66bd63"/>

<!-- Link from &quot;idGymnase&quot; (dispose_de) to &quot;idGymnase&quot; (GYMNASE) -->
<path d="M713 81.5 C745 64.5 734.33 47.5 777 47.5" fill="none" stroke="#66bd63" stroke-width="2"/>
<polygon points="777 47.5 765 53.5 769 47.5 765 41.5" fill="#66bd63" stroke-width="0"/>
<circle cx="713" cy="81.5" r="2" stroke="#66bd63" stroke-width="2" fill="#66bd63"/>

<!-- Link from &quot;CPVille&quot; (GYMNASE) to &quot;CPVille&quot; (VILLE) -->
<path d="M777 98.5 C739 128 751.67 157.5 701 157.5" fill="none" stroke="#66bd63" stroke-width="2"/>
<polygon points="701 157.5 713 151.5 709 157.5 713 163.5" fill="#66bd63" stroke-width="0"/>
<circle cx="777" cy="98.5" r="2" stroke="#66bd63" stroke-width="2" fill="#66bd63"/>

<!-- Link from &quot;idClub&quot; (MEMBRE) to &quot;idClub&quot; (CLUB) -->
<path d="M191 267.5 C323.5 157.5 279.33 47.5 456 47.5" fill="none" stroke="#66bd63" stroke-width="2"/>
<polygon points="456 47.5 444 53.5 448 47.5 444 41.5" fill="#66bd63" stroke-width="0"/>
<circle cx="191" cy="267.5" r="2" stroke="#66bd63" stroke-width="2" fill="#66bd63"/>

<!-- Link from &quot;idCategorie&quot; (MEMBRE) to &quot;idCategorie&quot; (CAT_AGE) -->
<path d="M191 352.5 C363.5 373 306 393.5 536 393.5" fill="none" stroke="#66bd63" stroke-width="2"/>
<polygon points="536 393.5 524 399.5 528 393.5 524 387.5" fill="#66bd63" stroke-width="0"/>
<circle cx="191" cy="352.5" r="2" stroke="#66bd63" stroke-width="2" fill="#66bd63"/>

<!-- Link from &quot;idMembre&quot; (participe_à) to &quot;idMembre&quot; (MEMBRE) -->
<path d="M447 275.5 C319 246 361.67 216.5 191 216.5" fill="none" stroke="#66bd63" stroke-width="2"/>
<polygon points="191 216.5 203 210.5 199 216.5 203 222.5" fill="#66bd63" stroke-width="0"/>
<circle cx="447" cy="275.5" r="2" stroke="#66bd63" stroke-width="2" fill="#66bd63"/>

<!-- Link from &quot;idCompetition&quot; (participe_à) to &quot;idCompetition&quot; (COMPETITION) -->
<path d="M553 292.5 C806 263 721.67 233.5 1059 233.5" fill="none" stroke="#66bd63" stroke-width="2"/>
<polygon points="1059 233.5 1047 239.5 1051 233.5 1047 227.5" fill="#66bd63" stroke-width="0"/>
<circle cx="553" cy="292.5" r="2" stroke="#66bd63" stroke-width="2" fill="#66bd63"/>

<!-- Link from &quot;idCategorie&quot; (COMPETITION) to &quot;idCategorie&quot; (CAT_AGE) -->
<path d="M1059 301.5 C846.5 347.5 917.33 393.5 634 393.5" fill="none" stroke="#66bd63" stroke-width="2"/>
<polygon points="634 393.5 646 387.5 642 393.5 646 399.5" fill="#66bd63" stroke-width="0"/>
<circle cx="1059" cy="301.5" r="2" stroke="#66bd63" stroke-width="2" fill="#66bd63"/>

<!-- Link from &quot;idGymnase&quot; (COMPETITION) to &quot;idGymnase&quot; (GYMNASE) -->
<path d="M1059 318.5 C979 183 1005.67 47.5 899 47.5" fill="none" stroke="#66bd63" stroke-width="2"/>
<polygon points="899 47.5 911 41.5 907 47.5 911 53.5" fill="#66bd63" stroke-width="0"/>
<circle cx="1059" cy="318.5" r="2" stroke="#66bd63" stroke-width="2" fill="#66bd63"/>

<!-- Link from &quot;idKata&quot; (COMPETITION) to &quot;idKata&quot; (KATA) -->
<path d="M1059 335.5 C848 411 918.33 486.5 637 486.5" fill="none" stroke="#66bd63" stroke-width="2"/>
<polygon points="637 486.5 649 480.5 645 486.5 649 492.5" fill="#66bd63" stroke-width="0"/>
<circle cx="1059" cy="335.5" r="2" stroke="#66bd63" stroke-width="2" fill="#66bd63"/>
</svg>